<svg id="Layer_1" enable-background="new 0 0 489.194 489.194" height="512" viewBox="0 0 489.194 489.194" width="512" xmlns="http://www.w3.org/2000/svg"><path d="m79 262.651c-43.56 0-79 35.44-79 79s35.44 79 79 79 79-35.44 79-79-35.44-79-79-79zm.5 98c-10.2 0-18.5-8.3-18.5-18.5s8.3-18.5 18.5-18.5 18.5 8.3 18.5 18.5-8.3 18.5-18.5 18.5zm409.19-27.78c-.63-5.53-6.61-8.71-11.57-6.19-114.31 58.06-92.63 47.05-118.76 60.32-5 2.54-5.87 9.29-1.73 13.08 14.33 13.13 33.23 20.69 53.4 20.69 47.66 0 83.9-41.76 78.66-87.9zm-8.77-54.91c-48.63-53.55-138.4-35.05-160.93 34.99-5.09 15.81-5.95 32.3-2.71 48.14 1.07 5.19 6.75 7.98 11.48 5.58 28.44-14.44 46.92-23.84 149.89-76.15 4.74-2.4 5.83-8.64 2.27-12.56zm-112.39-129.9 14.03-4.55c8.61-2.78 13.17-12.18 10.12-20.64l-15.8-43.87c-2.63-7.29-10.1-11.65-17.74-10.35-98.11 16.66-68.36 11.61-118.75 20.18-8.71 1.48-14.57 9.74-13.09 18.45s9.74 14.57 18.45 13.09l22.41-3.8 17.93 42.78c2.17 5.19 6.8 8.67 12.01 9.58l2.2 25.92c2.74 32.19-8.25 63.49-30.27 86.8h-50.25l-6.27-42.89c13.97-7.88 23.43-22.83 23.49-39.95.09-25.39-21.43-46.16-46.82-46.16h-111.18c-34.9 0-57.11 37.6-40.34 68.08-16.676 8.789-29.122 24.698-33.13 37.54 77.942-69.718 203.685-3.386 185.94 102.38h92.44c-18.466-82.472 51.31-158.555 135.27-146.85-3.23-5.49-13.79-18.32-50.65-65.74z"/></svg>